<?xml version="1.0" encoding="UTF-8"?><svg id="outlines" xmlns="http://www.w3.org/2000/svg" viewBox="0 0 900 140"><defs><style>.cls-1{fill:#231f20;}</style></defs><path class="cls-1" d="M139.55,61.71c-1.07,1.4-1.93,2.32-3.18,3.68l-20.26,22,21.63,27.1c1.24,1.49,2.36,3.11,2.74,4.35h-6.71l-21.51-27.35-9.82,10.57v16.78h-6.09V25.74l6.09-.25V94.24l30.08-32.57,7.03,.05Z"/><path class="cls-1" d="M171.18,60.92l1.37,8.33c6.46-5.72,13.3-9.32,21.26-9.32,12.56,0,16.16,7.46,16.16,20.01v38.91h-5.97v-36.42c0-11.31-2.36-17.03-11.19-17.03-7.09,0-13.55,3.61-19.64,8.7v44.75h-6.09v-36.05c0-4.23-.12-9.95-1.12-21.26l5.22-.62Z"/><path class="cls-1" d="M246.88,39.29c2.86,0,4.72,1.86,4.72,4.85s-1.99,5.22-5.1,5.22-4.85-1.86-4.85-4.72c0-3.23,2.11-5.35,5.22-5.35Zm2.61,22.25v57.31h-6.09V61.79l6.09-.25Z"/><path class="cls-1" d="M289.63,44.64v17.03h18.03v5.1h-18.03v35.06c0,10.07,1.62,12.8,7.33,12.8,2.36,0,12.81-3.23,16.42-4.23l1.37,4.72c-4.48,1.62-15.79,5.1-19.65,5.1-8.58,0-11.44-4.47-11.44-17.03v-36.42h-8.83v-5.1h8.33l1.62-17.03h4.85Z"/><path class="cls-1" d="M418.04,61.55v36.92c0,11.44,3.23,16.66,11.19,16.66,6.46,0,12.68-4.23,18.65-10.19V61.67h6.09v35.68c0,5.72,0,7.83,.99,21.13l-5.1,.75-1.49-8.95c-5.97,5.97-12.56,10.32-20.51,10.32-11.44,0-15.91-7.71-15.91-20.01V61.79l6.09-.25Z"/><path class="cls-1" d="M508.17,60.3c11.44,0,15.91,6.96,15.91,21.88v15.29c0,4.35,.12,9.32,.99,21.01l-5.1,.75-1.49-8.45c-6.59,5.97-13.8,9.45-21.01,9.45-8.58,0-14.42-5.22-14.42-14.05,0-5.47,2.73-10.07,7.09-13.05,5.22-3.61,14.17-5.59,27.85-6.71v-1.74c0-13.92-2.73-18.9-10.57-18.9-6.34,0-13.43,3.23-19.52,7.71l-2.49-3.98c6.59-5.35,14.42-9.2,22.75-9.2Zm9.82,45.13v-14.17c-14.67,1.49-21.01,3.23-24.37,5.47-2.24,1.74-4.47,4.6-4.47,8.83,0,6.09,3.73,9.57,9.07,9.57,6.09,0,13.18-3.48,19.77-9.7Z"/><path class="cls-1" d="M615.2,39.29c2.86,0,4.72,1.86,4.72,4.85s-1.99,5.22-5.1,5.22-4.85-1.86-4.85-4.72c0-3.23,2.11-5.35,5.22-5.35Zm2.61,22.25v57.31h-6.09V61.79l6.09-.25Z"/><path class="cls-1" d="M672,59.93c15.04,0,24.12,12.8,24.12,29.84,0,14.17-7.33,30.83-24.86,30.83-15.04,0-24.12-12.68-24.12-29.83,0-14.17,7.46-30.83,24.86-30.83Zm-.62,5.47c-4.72,0-8.58,1.62-11.31,4.23-4.23,4.23-6.71,11.31-6.71,20.39,0,14.42,6.34,25.11,18.52,25.11,4.85,0,8.7-1.62,11.44-4.35,4.23-4.23,6.59-11.44,6.59-20.26,0-14.3-6.46-25.11-18.52-25.11Z"/><path class="cls-1" d="M730.79,60.92l1.37,8.33c6.46-5.72,13.3-9.32,21.26-9.32,12.56,0,16.16,7.46,16.16,20.01v38.91h-5.97v-36.42c0-11.31-2.36-17.03-11.19-17.03-7.09,0-13.55,3.61-19.64,8.7v44.75h-6.09v-36.05c0-4.23-.12-9.95-1.12-21.26l5.22-.62Z"/><path class="cls-1" d="M819.05,60.3c6.46,0,12.56,2.36,16.53,5.59l-2.73,4.1c-4.1-2.73-8.58-4.35-13.67-4.35-7.21,0-12.31,3.36-12.31,9.32,0,6.84,6.59,9.45,13.05,11.93,8.95,3.36,17.53,6.71,17.53,16.78s-8.45,16.53-20.26,16.53c-8.08,0-14.17-3.11-19.02-6.71l2.86-4.1c4.6,3.11,9.57,5.59,16.04,5.59,8.08,0,14.17-3.85,14.17-10.69,0-7.58-7.71-9.82-15.54-13.05-8.33-3.23-15.04-6.96-15.04-15.54,0-9.57,8.45-15.42,18.4-15.42Z"/><path class="cls-1" d="M563.84,44.64v17.03h18.03v5.1h-18.03v35.06c0,10.07,1.62,12.8,7.33,12.8,2.36,0,12.81-3.23,16.42-4.23l1.37,4.72c-4.48,1.62-15.79,5.1-19.65,5.1-8.58,0-11.44-4.47-11.44-17.03v-36.42h-8.83v-5.1h8.33l1.62-17.03h4.85Z"/><path class="cls-1" d="M360.25,59.91c15.39,0,24.17,13.16,24.17,29.24,0,13.67-6.28,28.29-20.55,30.53,3.61,5.93,8.34,8,13.76,8,1.89,0,3.87-.26,5.5-.69l1.03,4.73c-2.49,.86-5.68,1.2-7.91,1.2-7.4,0-13.5-3.87-18.23-13.07-14.19-1.12-22.19-13.85-22.19-29.15s7.4-30.79,24.42-30.79Zm-.17,5.25c-4.47,0-7.74,1.55-9.98,3.44-6.02,4.9-8.17,13.67-8.17,21.33,0,13.76,6.54,24.77,18.23,24.77,4.47,0,7.74-1.55,10.06-3.44,6.02-4.9,8.08-13.67,8.08-21.33,0-13.76-6.45-24.77-18.23-24.77Z"/><polygon class="cls-1" points="35.02 73.98 63.39 73.98 83.43 118.85 78.47 118.85 60.54 78.54 35.02 78.54 35.02 73.98"/><polygon class="cls-1" points="153.06 44.33 146.35 44.33 170.7 19.07 843.7 19.07 843.7 23.61 172.84 23.61 153.06 44.33"/></svg>